TITLE ""
FILE "1Q_t_1349-1358.mp3" MP3
  TRACK 01 AUDIO
    TITLE "1Q_t_1349-1358_01"
    INDEX 01 00:00:00
  TRACK 02 AUDIO
    TITLE "1Q_t_1349-1358_02"
    INDEX 01 00:00:14
  TRACK 03 AUDIO
    TITLE "1Q_t_1349-1358_03"
    INDEX 01 00:01:33
  TRACK 04 AUDIO
    TITLE "1Q_t_1349-1358_04"
    INDEX 01 00:01:41
  TRACK 05 AUDIO
    TITLE "1Q_t_1349-1358_05"
    INDEX 01 00:02:54
  TRACK 06 AUDIO
    TITLE "1Q_t_1349-1358_06"
    INDEX 01 00:02:62
  TRACK 07 AUDIO
    TITLE "1Q_t_1349-1358_07"
    INDEX 01 00:08:14
  TRACK 08 AUDIO
    TITLE "1Q_t_1349-1358_08"
    INDEX 01 00:08:59
  TRACK 09 AUDIO
    TITLE "1Q_t_1349-1358_09"
    INDEX 01 00:10:20
  TRACK 10 AUDIO
    TITLE "1Q_t_1349-1358_10"
    INDEX 01 00:10:26
  TRACK 11 AUDIO
    TITLE "1Q_t_1349-1358_11"
    INDEX 01 00:11:34
  TRACK 12 AUDIO
    TITLE "1Q_t_1349-1358_12"
    INDEX 01 00:11:39
  TRACK 13 AUDIO
    TITLE "1Q_t_1349-1358_13"
    INDEX 01 00:17:71
  TRACK 14 AUDIO
    TITLE "1Q_t_1349-1358_14"
    INDEX 01 00:18:45
  TRACK 15 AUDIO
    TITLE "1Q_t_1349-1358_15"
    INDEX 01 00:19:47
  TRACK 16 AUDIO
    TITLE "1Q_t_1349-1358_16"
    INDEX 01 00:19:55
  TRACK 17 AUDIO
    TITLE "1Q_t_1349-1358_17"
    INDEX 01 00:21:44
  TRACK 18 AUDIO
    TITLE "1Q_t_1349-1358_18"
    INDEX 01 00:21:50
  TRACK 19 AUDIO
    TITLE "1Q_t_1349-1358_19"
    INDEX 01 00:27:37
  TRACK 20 AUDIO
    TITLE "1Q_t_1349-1358_20"
    INDEX 01 00:28:07
  TRACK 21 AUDIO
    TITLE "1Q_t_1349-1358_21"
    INDEX 01 00:29:34
  TRACK 22 AUDIO
    TITLE "1Q_t_1349-1358_22"
    INDEX 01 00:29:37
  TRACK 23 AUDIO
    TITLE "1Q_t_1349-1358_23"
    INDEX 01 00:30:49
  TRACK 24 AUDIO
    TITLE "1Q_t_1349-1358_24"
    INDEX 01 00:30:56
  TRACK 25 AUDIO
    TITLE "1Q_t_1349-1358_25"
    INDEX 01 00:37:06
  TRACK 26 AUDIO
    TITLE "1Q_t_1349-1358_26"
    INDEX 01 00:37:51
  TRACK 27 AUDIO
    TITLE "1Q_t_1349-1358_27"
    INDEX 01 00:38:62
  TRACK 28 AUDIO
    TITLE "1Q_t_1349-1358_28"
    INDEX 01 00:38:70
  TRACK 29 AUDIO
    TITLE "1Q_t_1349-1358_29"
    INDEX 01 00:40:74
  TRACK 30 AUDIO
    TITLE "1Q_t_1349-1358_30"
    INDEX 01 00:41:07
  TRACK 31 AUDIO
    TITLE "1Q_t_1349-1358_31"
    INDEX 01 00:46:71
  TRACK 32 AUDIO
    TITLE "1Q_t_1349-1358_32"
    INDEX 01 00:47:39
  TRACK 33 AUDIO
    TITLE "1Q_t_1349-1358_33"
    INDEX 01 00:48:52
  TRACK 34 AUDIO
    TITLE "1Q_t_1349-1358_34"
    INDEX 01 00:48:60
  TRACK 35 AUDIO
    TITLE "1Q_t_1349-1358_35"
    INDEX 01 00:51:08
  TRACK 36 AUDIO
    TITLE "1Q_t_1349-1358_36"
    INDEX 01 00:51:16
  TRACK 37 AUDIO
    TITLE "1Q_t_1349-1358_37"
    INDEX 01 00:57:71
  TRACK 38 AUDIO
    TITLE "1Q_t_1349-1358_38"
    INDEX 01 00:58:39
  TRACK 39 AUDIO
    TITLE "1Q_t_1349-1358_39"
    INDEX 01 00:59:52
  TRACK 40 AUDIO
    TITLE "1Q_t_1349-1358_40"
    INDEX 01 00:59:62
  TRACK 41 AUDIO
    TITLE "1Q_t_1349-1358_41"
    INDEX 01 01:01:10
  TRACK 42 AUDIO
    TITLE "1Q_t_1349-1358_42"
    INDEX 01 01:01:18
  TRACK 43 AUDIO
    TITLE "1Q_t_1349-1358_43"
    INDEX 01 01:06:68
  TRACK 44 AUDIO
    TITLE "1Q_t_1349-1358_44"
    INDEX 01 01:07:38
  TRACK 45 AUDIO
    TITLE "1Q_t_1349-1358_45"
    INDEX 01 01:08:37
  TRACK 46 AUDIO
    TITLE "1Q_t_1349-1358_46"
    INDEX 01 01:08:45
  TRACK 47 AUDIO
    TITLE "1Q_t_1349-1358_47"
    INDEX 01 01:10:36
  TRACK 48 AUDIO
    TITLE "1Q_t_1349-1358_48"
    INDEX 01 01:10:42
  TRACK 49 AUDIO
    TITLE "1Q_t_1349-1358_49"
    INDEX 01 01:15:53
  TRACK 50 AUDIO
    TITLE "1Q_t_1349-1358_50"
    INDEX 01 01:16:21
  TRACK 51 AUDIO
    TITLE "1Q_t_1349-1358_51"
    INDEX 01 01:17:38
  TRACK 52 AUDIO
    TITLE "1Q_t_1349-1358_52"
    INDEX 01 01:17:46
  TRACK 53 AUDIO
    TITLE "1Q_t_1349-1358_53"
    INDEX 01 01:18:50
  TRACK 54 AUDIO
    TITLE "1Q_t_1349-1358_54"
    INDEX 01 01:18:55
  TRACK 55 AUDIO
    TITLE "1Q_t_1349-1358_55"
    INDEX 01 01:24:37
  TRACK 56 AUDIO
    TITLE "1Q_t_1349-1358_56"
    INDEX 01 01:25:03
  TRACK 57 AUDIO
    TITLE "1Q_t_1349-1358_57"
    INDEX 01 01:26:39
  TRACK 58 AUDIO
    TITLE "1Q_t_1349-1358_58"
    INDEX 01 01:26:47
  TRACK 59 AUDIO
    TITLE "1Q_t_1349-1358_59"
    INDEX 01 01:29:65
  TRACK 60 AUDIO
    TITLE "1Q_t_1349-1358_60"
    INDEX 01 01:29:73
  TRACK 61 AUDIO
    TITLE "1Q_t_1349-1358_61"
    INDEX 01 01:37:51
